<?xml version="1.0" standalone="no"?><!DOCTYPE svg PUBLIC "-//W3C//DTD SVG 1.1//EN" "http://www.w3.org/Graphics/SVG/1.1/DTD/svg11.dtd"><svg t="1675438235086" class="icon" viewBox="0 0 1024 1024" version="1.1" xmlns="http://www.w3.org/2000/svg" p-id="2269" xmlns:xlink="http://www.w3.org/1999/xlink" width="64" height="64"><path d="M938.74 512c0-235.32-191.45-426.73-426.73-426.73C276.67 85.27 85.26 276.68 85.26 512c0 235.31 191.41 426.73 426.74 426.73 235.28 0 426.74-191.43 426.74-426.73M512.01 877.5c-201.52 0-365.5-164.01-365.5-365.5 0-201.52 163.98-365.48 365.5-365.48 201.49 0 365.47 163.97 365.47 365.48 0 201.49-163.99 365.5-365.47 365.5" fill="#D0E2FA" p-id="2270"></path><path d="M686.64 643.43L554.69 511.09l131.83-130.36c11.97-11.82 12.06-31.13 0.24-43.1-11.82-11.98-31.16-12.07-43.13-0.23L511.69 467.91 381.7 337.52c-11.91-11.91-31.19-11.97-43.13-0.06-11.91 11.92-11.91 31.2-0.06 43.11l129.83 130.21-130.85 129.44c-11.97 11.85-12.09 31.1-0.24 43.07 5.98 6.04 13.78 9.06 21.64 9.06 7.74 0 15.53-2.96 21.46-8.79l131.04-129.62 132.07 132.55a30.493 30.493 0 0 0 21.61 8.95c7.8 0 15.56-2.99 21.52-8.89 11.9-11.87 11.93-31.16 0.05-43.12" fill="#3376E5" p-id="2271"></path></svg>