<?xml version="1.0" standalone="no"?><!DOCTYPE svg PUBLIC "-//W3C//DTD SVG 1.1//EN" "http://www.w3.org/Graphics/SVG/1.1/DTD/svg11.dtd"><svg class="icon" width="16px" height="16.00px" viewBox="0 0 1024 1024" version="1.1" xmlns="http://www.w3.org/2000/svg"><path fill="#2c2c2c" d="M942.370611 739.255808c-9.64608 0-18.099917-6.794752-20.044288-16.409702-0.273203-1.290342-13.681152-62.485094-70.839194-122.607411-72.793805-76.570931-185.439846-118.69225-326.665011-122.379264l0 166.336376c0 7.69321-4.313395 14.734541-11.165798 18.23017-6.851277 3.494605-15.086182 2.855014-21.314253-1.660826L99.968819 376.320819c-5.304013-3.844608-8.446669-9.996698-8.453837-16.54784-0.007168-6.550221 3.122278-12.709478 8.418099-16.565248L492.306227 57.463808c6.224998-4.532224 14.467072-5.189222 21.329613-1.696666 6.863565 3.491533 11.186176 10.540032 11.186176 18.24041l0 176.618557c25.276723 0.931226 69.372723 4.680602 120.492032 18.246554 81.366426 21.593805 148.922778 59.281101 200.796262 112.014131 79.828275 81.153331 119.105434 194.954138 116.740506 338.240512-0.17193 10.45719-8.202138 19.102106-18.617754 20.044493C943.608832 739.228262 942.985626 739.255808 942.370611 739.255808zM504.355123 436.66217c90.70039 0 171.124224 14.281216 239.035699 42.445722 55.036723 22.824858 102.001152 54.739763 139.585741 94.857421 12.340531 13.172019 22.843187 26.345062 31.769805 39.064678-13.623808-82.952294-46.350541-151.116698-97.818726-203.440435-110.771302-112.60969-274.788454-118.314701-306.541875-118.314701-3.38729 0-5.247693 0.06656-5.266125 0.06656-5.561856 0.198554-10.961101-1.862451-14.961357-5.719245-4.000256-3.857818-6.270054-9.174938-6.270054-14.731469L483.88823 114.230648 146.800333 359.713587l337.087795 244.365517L483.888128 457.128275C483.888128 445.825843 493.051187 436.66217 504.355123 436.66217z"  /></svg>