<?xml version="1.0" standalone="no"?><!DOCTYPE svg PUBLIC "-//W3C//DTD SVG 1.1//EN" "http://www.w3.org/Graphics/SVG/1.1/DTD/svg11.dtd"><svg class="icon" width="16px" height="16.00px" viewBox="0 0 1024 1024" version="1.1" xmlns="http://www.w3.org/2000/svg"><path fill="#87ceeb" d="M751.908571 711.917714a15.232 15.232 0 0 1-24.32-18.377143 298.166857 298.166857 0 0 0 60.562286-180.626285c0-165.449143-134.144-299.593143-299.593143-299.593143-111.488 0-212.114286 61.421714-264.009143 157.842286a15.232 15.232 0 0 1-26.843428-14.445715A329.965714 329.965714 0 0 1 488.557714 182.857143c182.272 0 330.057143 147.766857 330.057143 330.057143 0 72.850286-23.68 142.134857-66.724571 199.003428zM165.394286 445.330286a15.232 15.232 0 1 1 29.824 6.217143 300.946286 300.946286 0 0 0-6.290286 61.366857c0 165.467429 134.144 299.593143 299.611429 299.593143 60.598857 0 118.491429-18.011429 167.606857-51.236572a15.232 15.232 0 1 1 17.060571 25.234286 328.557714 328.557714 0 0 1-184.685714 56.484571c-182.272 0-330.057143-147.785143-330.057143-330.057143 0-22.912 2.340571-45.531429 6.948571-67.602285z m119.552-234.514286a10.148571 10.148571 0 0 1-0.384 20.297143c-53.174857-1.005714-90.514286 13.074286-107.52 40.283428-46.299429 74.075429 63.798857 231.460571 249.782857 347.684572 185.965714 116.205714 375.698286 146.176 421.997714 72.082286 13.824-22.125714 14.006857-52.498286 0.365714-88.868572a10.148571 10.148571 0 0 1 19.017143-7.131428c15.670857 41.782857 15.451429 78.573714-2.157714 106.770285-54.765714 87.625143-255.451429 55.936-449.993143-65.645714C221.513143 514.742857 105.069714 348.269714 159.835429 260.644571c21.449143-34.340571 65.536-50.962286 125.129142-49.810285z m294.985143 347.794286a76.16 76.16 0 1 1 0-152.32 76.16 76.16 0 0 1 0 152.32z m0-30.464a45.714286 45.714286 0 1 0 0-91.392 45.714286 45.714286 0 0 0 0 91.392z"  /></svg>