<?xml version="1.0" standalone="no"?><!DOCTYPE svg PUBLIC "-//W3C//DTD SVG 1.1//EN" "http://www.w3.org/Graphics/SVG/1.1/DTD/svg11.dtd"><svg class="icon" width="16px" height="16.00px" viewBox="0 0 1024 1024" version="1.1" xmlns="http://www.w3.org/2000/svg"><path d="M510.89 921.7c-88.25 0-176.5-6.43-264.14-19.28l-0.26-0.04c-30.68-4.81-61.57-21.44-86.98-46.85-25.41-25.41-42.05-56.3-46.85-86.98l-0.04-0.26a1818.793 1818.793 0 0 1 0-528.28l0.04-0.26c4.81-30.68 21.44-61.57 46.85-86.98s56.3-42.05 86.98-46.85l0.26-0.04a1818.793 1818.793 0 0 1 528.28 0l0.26 0.04c30.68 4.81 61.57 21.45 86.98 46.85 25.41 25.41 42.05 56.3 46.85 86.98l0.04 0.26a1818.793 1818.793 0 0 1 0 528.28l-0.04 0.26c-4.81 30.68-21.45 61.58-46.85 86.98-25.41 25.41-56.3 42.05-86.98 46.85l-0.26 0.04a1819.042 1819.042 0 0 1-264.14 19.28z m-256.02-73.68a1763.556 1763.556 0 0 0 512.04 0c39.74-6.3 81.56-48.12 87.86-87.86 24.9-169.87 24.9-342.16 0-512.03-6.3-39.74-48.11-81.56-87.86-87.86a1763.556 1763.556 0 0 0-512.04 0c-39.75 6.3-81.57 48.12-87.86 87.86a1763.488 1763.488 0 0 0 0 512.03c6.3 39.75 48.12 81.57 87.86 87.86z" fill="#64A0CF" /><path d="M399.85 335.23l209.84 209.84c10.19 10.19 26.72 10.19 36.92 0l12.58-12.58c10.19-10.19 10.19-26.72 0-36.92L449.35 285.73c-10.19-10.19-26.72-10.19-36.92 0l-12.58 12.58c-10.2 10.2-10.2 26.73 0 36.92z" fill="#9EEFD9" /><path d="M399.16 729.11l12.58 12.58c10.19 10.19 26.72 10.19 36.92 0L658.5 531.85c10.19-10.19 10.19-26.72 0-36.92l-12.58-12.58c-10.19-10.19-26.72-10.19-36.92 0L399.16 692.2c-10.19 10.19-10.19 26.72 0 36.91z" fill="#9EEFD9" /></svg>