<?xml version="1.0" standalone="no"?><!DOCTYPE svg PUBLIC "-//W3C//DTD SVG 1.1//EN" "http://www.w3.org/Graphics/SVG/1.1/DTD/svg11.dtd"><svg class="icon" width="16px" height="16.00px" viewBox="0 0 1024 1024" version="1.1" xmlns="http://www.w3.org/2000/svg"><path fill="#2c2c2c" d="M215.552 809.984L802.304 187.904c9.216-9.728 24.576-10.24 34.304-1.024 9.728 9.216 10.24 24.576 1.024 34.304L250.368 843.264c-9.216 9.728-24.576 10.24-34.304 1.024-9.216-9.216-9.728-24.576-0.512-34.304z"  /><path fill="#2c2c2c" d="M183.296 509.44c-2.048-5.12-2.56-19.968-1.024-25.6 111.616-147.968 228.864-219.136 348.672-211.456 43.008 2.56 82.944 15.872 119.296 34.304l34.304-36.352c-45.056-24.576-95.744-42.496-150.528-45.568C396.8 215.04 265.216 293.376 142.336 456.192c-13.824 18.432-10.752 60.416-1.536 76.8 15.872 28.16 75.264 92.672 162.816 140.8l34.304-36.352c-84.48-43.52-141.824-105.472-154.624-128zM884.736 460.8c-18.432-32.768-70.144-100.864-144.384-155.648l-33.792 35.84c72.192 52.224 121.856 118.272 135.68 142.336 1.536 4.608 3.072 19.456 2.56 26.624-109.568 126.464-230.4 184.32-358.912 172.032-29.696-3.072-57.856-9.216-83.968-17.92l-35.84 38.4c35.328 13.824 74.24 24.064 115.2 27.648 13.312 1.024 26.112 2.048 38.912 2.048 131.584 0 253.952-65.024 364.032-193.536 15.872-18.944 6.656-66.56 0.512-77.824z"  /><path fill="#2c2c2c" d="M390.656 477.184c0 28.672 10.24 54.784 26.624 75.776l33.792-35.84c-7.68-11.776-11.776-25.088-11.776-39.936 0-40.448 32.768-73.728 73.728-73.728 13.312 0 25.6 3.584 36.352 9.728l33.792-35.84c-19.968-13.824-44.032-22.528-70.144-22.528-67.584 0.512-122.368 55.296-122.368 122.368zM586.24 477.184c0 40.448-32.768 73.728-73.728 73.728-1.536 0-2.56-0.512-4.096-0.512l-38.4 40.96c13.312 5.12 27.648 7.68 42.496 7.68 67.072 0 121.856-54.784 121.856-121.856 0-17.408-3.584-34.304-10.752-49.152l-38.912 40.96c1.024 3.072 1.536 5.632 1.536 8.192z"  /></svg>