<?xml version="1.0" standalone="no"?><!DOCTYPE svg PUBLIC "-//W3C//DTD SVG 1.1//EN" "http://www.w3.org/Graphics/SVG/1.1/DTD/svg11.dtd"><svg class="icon" width="16px" height="16.00px" viewBox="0 0 1024 1024" version="1.1" xmlns="http://www.w3.org/2000/svg"><path fill="#87ceeb" d="M768 924.8H256c-42.5 0-77-34.5-77-77V734.6h97v-64h-97V541.9h97v-64h-97V349.2h97v-64h-97V176c0-42.5 34.5-77 77-77h512c42.5 0 77 34.5 77 77v671.8c0 42.5-34.5 77-77 77zM237 792.6v55.2c0 10.3 8.7 19 19 19h512c10.3 0 19-8.7 19-19V176c0-10.3-8.7-19-19-19H256c-10.3 0-19 8.7-19 19v51.2h44c29.2 0 53 23.8 53 53v74c0 29.2-23.8 53-53 53h-44v12.7h44c29.2 0 53 23.8 53 53v74c0 29.2-23.8 53-53 53h-44v12.7h44c29.2 0 53 23.8 53 53v74c0 29.2-23.8 53-53 53h-44zM472 431.8c0-44.2 35.8-79.9 80-79.9 47.2 0 84.8 40.8 79.5 89.1-4 36.6-33.7 66.3-70.4 70.4-48.3 5.3-89.1-32.3-89.1-79.6 0 0.1 0 0.1 0 0zM711.9 660.4c0 6.3-5.1 11.4-11.4 11.4h-297c-6.3 0-11.4-5.1-11.4-11.4v-34.3c0-60.8 106.6-91.4 159.9-91.4 53.4 0 160 30.6 160 91.4l-0.1 34.3z" /></svg>